TITLE ""
FILE "DISC2Track17.mp3" MP3
  TRACK 01 AUDIO
    TITLE "DISC2Track17_01"
    INDEX 01 00:00:00
  TRACK 02 AUDIO
    TITLE "DISC2Track17_02"
    INDEX 01 00:01:53
  TRACK 03 AUDIO
    TITLE "DISC2Track17_03"
    INDEX 01 00:01:67
  TRACK 04 AUDIO
    TITLE "DISC2Track17_04"
    INDEX 01 00:05:62
  TRACK 05 AUDIO
    TITLE "DISC2Track17_05"
    INDEX 01 00:10:19
  TRACK 06 AUDIO
    TITLE "DISC2Track17_06"
    INDEX 01 00:14:18
  TRACK 07 AUDIO
    TITLE "DISC2Track17_07"
    INDEX 01 00:14:36
  TRACK 08 AUDIO
    TITLE "DISC2Track17_08"
    INDEX 01 00:17:40
  TRACK 09 AUDIO
    TITLE "DISC2Track17_09"
    INDEX 01 00:20:31
  TRACK 10 AUDIO
    TITLE "DISC2Track17_10"
    INDEX 01 00:22:63
  TRACK 11 AUDIO
    TITLE "DISC2Track17_11"
    INDEX 01 00:23:03
  TRACK 12 AUDIO
    TITLE "DISC2Track17_12"
    INDEX 01 00:26:31
  TRACK 13 AUDIO
    TITLE "DISC2Track17_13"
    INDEX 01 00:30:09
  TRACK 14 AUDIO
    TITLE "DISC2Track17_14"
    INDEX 01 00:33:31
  TRACK 15 AUDIO
    TITLE "DISC2Track17_15"
    INDEX 01 00:33:45
  TRACK 16 AUDIO
    TITLE "DISC2Track17_16"
    INDEX 01 00:37:00
  TRACK 17 AUDIO
    TITLE "DISC2Track17_17"
    INDEX 01 00:40:04
  TRACK 18 AUDIO
    TITLE "DISC2Track17_18"
    INDEX 01 00:42:58
  TRACK 19 AUDIO
    TITLE "DISC2Track17_19"
    INDEX 01 00:42:73
  TRACK 20 AUDIO
    TITLE "DISC2Track17_20"
    INDEX 01 00:46:22
  TRACK 21 AUDIO
    TITLE "DISC2Track17_21"
    INDEX 01 00:49:30
  TRACK 22 AUDIO
    TITLE "DISC2Track17_22"
    INDEX 01 00:52:05
  TRACK 23 AUDIO
    TITLE "DISC2Track17_23"
    INDEX 01 00:52:21
  TRACK 24 AUDIO
    TITLE "DISC2Track17_24"
    INDEX 01 00:55:43
  TRACK 25 AUDIO
    TITLE "DISC2Track17_25"
    INDEX 01 00:59:27
  TRACK 26 AUDIO
    TITLE "DISC2Track17_26"
    INDEX 01 01:02:60
  TRACK 27 AUDIO
    TITLE "DISC2Track17_27"
    INDEX 01 01:02:70
  TRACK 28 AUDIO
    TITLE "DISC2Track17_28"
    INDEX 01 01:05:61
  TRACK 29 AUDIO
    TITLE "DISC2Track17_29"
    INDEX 01 01:08:63
  TRACK 30 AUDIO
    TITLE "DISC2Track17_30"
    INDEX 01 01:11:44
  TRACK 31 AUDIO
    TITLE "DISC2Track17_31"
    INDEX 01 01:11:61
  TRACK 32 AUDIO
    TITLE "DISC2Track17_32"
    INDEX 01 01:15:00
  TRACK 33 AUDIO
    TITLE "DISC2Track17_33"
    INDEX 01 01:17:58
  TRACK 34 AUDIO
    TITLE "DISC2Track17_34"
    INDEX 01 01:20:01
  TRACK 35 AUDIO
    TITLE "DISC2Track17_35"
    INDEX 01 01:20:19
  TRACK 36 AUDIO
    TITLE "DISC2Track17_36"
    INDEX 01 01:24:15
  TRACK 37 AUDIO
    TITLE "DISC2Track17_37"
    INDEX 01 01:28:11
  TRACK 38 AUDIO
    TITLE "DISC2Track17_38"
    INDEX 01 01:31:46
  TRACK 39 AUDIO
    TITLE "DISC2Track17_39"
    INDEX 01 01:31:60
  TRACK 40 AUDIO
    TITLE "DISC2Track17_40"
    INDEX 01 01:34:64
  TRACK 41 AUDIO
    TITLE "DISC2Track17_41"
    INDEX 01 01:37:39
  TRACK 42 AUDIO
    TITLE "DISC2Track17_42"
    INDEX 01 01:39:60
